<svg width="116" height="126" viewBox="0 0 116 126" fill="none" xmlns="http://www.w3.org/2000/svg">
<path d="M65.8488 119.126H55.2413V89.2033H65.9365C68.9463 89.2033 71.5373 89.8023 73.7094 91.0004C75.8816 92.1888 77.5521 93.8982 78.7209 96.1288C79.8995 98.3594 80.4888 101.028 80.4888 104.136C80.4888 107.253 79.8995 109.931 78.7209 112.171C77.5521 114.412 75.8718 116.131 73.6802 117.329C71.4983 118.527 68.8878 119.126 65.8488 119.126ZM61.5678 113.706H65.5858C67.456 113.706 69.0291 113.374 70.3051 112.712C71.5908 112.04 72.5552 111.003 73.198 109.6C73.8507 108.188 74.177 106.366 74.177 104.136C74.177 101.924 73.8507 100.118 73.198 98.7149C72.5552 97.3123 71.5957 96.2798 70.3197 95.6174C69.0437 94.9551 67.4706 94.6239 65.6004 94.6239H61.5678V113.706ZM112.673 104.165C112.673 107.428 112.054 110.204 110.817 112.493C109.59 114.782 107.915 116.53 105.791 117.738C103.677 118.936 101.301 119.535 98.661 119.535C96.0019 119.535 93.6154 118.931 91.5017 117.724C89.388 116.516 87.7175 114.767 86.4902 112.478C85.2629 110.189 84.6493 107.418 84.6493 104.165C84.6493 100.902 85.2629 98.1256 86.4902 95.8366C87.7175 93.5476 89.388 91.804 91.5017 90.6059C93.6154 89.3981 96.0019 88.7942 98.661 88.7942C101.301 88.7942 103.677 89.3981 105.791 90.6059C107.915 91.804 109.59 93.5476 110.817 95.8366C112.054 98.1256 112.673 100.902 112.673 104.165ZM106.259 104.165C106.259 102.051 105.942 100.269 105.309 98.8172C104.686 97.3659 103.804 96.2652 102.664 95.5152C101.525 94.7651 100.19 94.3901 98.661 94.3901C97.1318 94.3901 95.7973 94.7651 94.6577 95.5152C93.518 96.2652 92.6316 97.3659 91.9985 98.8172C91.3751 100.269 91.0634 102.051 91.0634 104.165C91.0634 106.278 91.3751 108.061 91.9985 109.512C92.6316 110.964 93.518 112.064 94.6577 112.814C95.7973 113.564 97.1318 113.939 98.661 113.939C100.19 113.939 101.525 113.564 102.664 112.814C103.804 112.064 104.686 110.964 105.309 109.512C105.942 108.061 106.259 106.278 106.259 104.165Z" fill="#7564FF"/>
<path d="M3.47133 35V5.07706H23.6342V10.2931H9.79781V17.4232H22.5969V22.6393H9.79781V29.7839H23.6927V35H3.47133ZM34.07 5.07706L41.3024 27.8115H41.58L48.8269 5.07706H55.8401L45.5249 35H37.3721L27.0422 5.07706H34.07ZM59.4417 35V5.07706H79.6046V10.2931H65.7682V17.4232H78.5672V22.6393H65.7682V29.7839H79.6631V35H59.4417Z" fill="#7564FF"/>
<path d="M21.1342 77.0626V47.1397H31.2449C33.5826 47.1397 35.5015 47.539 37.0016 48.3378C38.5016 49.1268 39.612 50.2128 40.3328 51.596C41.0536 52.9791 41.414 54.5522 41.414 56.3153C41.414 58.0783 41.0536 59.6417 40.3328 61.0053C39.612 62.369 38.5065 63.4405 37.0162 64.2197C35.5259 64.9892 33.6216 65.374 31.3033 65.374H23.1213V62.1012H31.1865C32.7839 62.1012 34.0697 61.8674 35.0437 61.3998C36.0275 60.9323 36.7386 60.2699 37.1769 59.4128C37.625 58.5459 37.849 57.5134 37.849 56.3153C37.849 55.1172 37.625 54.0701 37.1769 53.1739C36.7288 52.2778 36.0129 51.5862 35.0291 51.0992C34.0453 50.6024 32.7449 50.3541 31.128 50.3541H24.7577V77.0626H21.1342ZM35.219 63.6207L42.5829 77.0626H38.375L31.128 63.6207H35.219ZM48.6793 77.0626H44.8804L55.8678 47.1397H59.6081L70.5955 77.0626H66.7967L57.8548 51.8736H57.6211L48.6793 77.0626ZM50.0819 65.374H65.394V68.5884H50.0819V65.374ZM75.2563 77.0626V47.1397H78.8798V73.8482H92.7893V77.0626H75.2563Z" fill="#7564FF"/>
<rect x="2.71924" y="89.6733" width="45.299" height="29.583" fill="#7564FF"/>
</svg>
